<svg xmlns="http://www.w3.org/2000/svg" xmlns:xlink="http://www.w3.org/1999/xlink" width="384" zoomAndPan="magnify" viewBox="0 0 288 431.999984" height="576" preserveAspectRatio="xMidYMid meet" version="1.0"><defs><g/><clipPath id="2c2b2e00b7"><path d="M 183 154 L 251.75 154 L 251.75 227 L 183 227 Z M 183 154 " clip-rule="nonzero"/></clipPath><clipPath id="62b0cc6e6e"><path d="M 144 137.078125 L 167 137.078125 L 167 159 L 144 159 Z M 144 137.078125 " clip-rule="nonzero"/></clipPath><clipPath id="fe3ac1d8f4"><path d="M 140 198 L 171 198 L 171 243.578125 L 140 243.578125 Z M 140 198 " clip-rule="nonzero"/></clipPath><clipPath id="f07272bbb4"><path d="M 136.25 162 L 175 162 L 175 197 L 136.25 197 Z M 136.25 162 " clip-rule="nonzero"/></clipPath></defs><g clip-path="url(#2c2b2e00b7)"><path fill="#000000" d="M 251.746094 224.410156 C 251.746094 225.601562 250.804688 226.539062 249.605469 226.539062 L 185.445312 226.539062 C 184.25 226.539062 183.308594 225.601562 183.308594 224.410156 C 183.308594 223.214844 184.25 222.277344 185.445312 222.277344 L 187.585938 222.277344 L 187.585938 190.328125 C 187.585938 189.136719 188.527344 188.199219 189.722656 188.199219 L 202.554688 188.199219 C 203.753906 188.199219 204.695312 189.136719 204.695312 190.328125 L 204.695312 222.277344 L 208.972656 222.277344 L 208.972656 173.289062 C 208.972656 172.097656 209.914062 171.160156 211.109375 171.160156 L 223.941406 171.160156 C 225.140625 171.160156 226.082031 172.097656 226.082031 173.289062 L 226.082031 222.277344 L 230.359375 222.277344 L 230.359375 156.25 C 230.359375 155.054688 231.300781 154.117188 232.496094 154.117188 L 245.328125 154.117188 C 246.527344 154.117188 247.46875 155.054688 247.46875 156.25 L 247.46875 222.277344 L 249.605469 222.277344 C 250.804688 222.277344 251.746094 223.214844 251.746094 224.410156 Z M 251.746094 224.410156 " fill-opacity="1" fill-rule="nonzero"/></g><g clip-path="url(#62b0cc6e6e)"><path fill="#000000" d="M 166.199219 147.730469 C 166.199219 148.429688 166.128906 149.121094 165.992188 149.804688 C 165.855469 150.492188 165.652344 151.160156 165.382812 151.804688 C 165.117188 152.449219 164.785156 153.0625 164.394531 153.644531 C 164.007812 154.226562 163.5625 154.765625 163.066406 155.257812 C 162.570312 155.753906 162.03125 156.195312 161.445312 156.582031 C 160.863281 156.972656 160.246094 157.300781 159.597656 157.566406 C 158.949219 157.835938 158.28125 158.039062 157.589844 158.175781 C 156.902344 158.3125 156.207031 158.378906 155.503906 158.378906 C 154.800781 158.378906 154.105469 158.3125 153.417969 158.175781 C 152.730469 158.039062 152.0625 157.835938 151.414062 157.566406 C 150.765625 157.300781 150.148438 156.972656 149.5625 156.582031 C 148.980469 156.195312 148.441406 155.753906 147.941406 155.257812 C 147.445312 154.765625 147.003906 154.226562 146.613281 153.644531 C 146.222656 153.0625 145.894531 152.449219 145.625 151.804688 C 145.355469 151.160156 145.152344 150.492188 145.015625 149.804688 C 144.878906 149.121094 144.8125 148.429688 144.8125 147.730469 C 144.8125 147.03125 144.878906 146.335938 145.015625 145.652344 C 145.152344 144.964844 145.355469 144.300781 145.625 143.652344 C 145.894531 143.007812 146.222656 142.394531 146.613281 141.8125 C 147.003906 141.230469 147.445312 140.691406 147.941406 140.199219 C 148.441406 139.703125 148.980469 139.261719 149.5625 138.875 C 150.148438 138.484375 150.765625 138.15625 151.414062 137.890625 C 152.0625 137.621094 152.730469 137.417969 153.417969 137.285156 C 154.105469 137.148438 154.800781 137.078125 155.503906 137.078125 C 156.207031 137.078125 156.902344 137.148438 157.589844 137.285156 C 158.28125 137.417969 158.949219 137.621094 159.597656 137.890625 C 160.246094 138.15625 160.863281 138.484375 161.445312 138.875 C 162.03125 139.261719 162.570312 139.703125 163.066406 140.199219 C 163.5625 140.691406 164.007812 141.230469 164.394531 141.8125 C 164.785156 142.394531 165.117188 143.007812 165.382812 143.652344 C 165.652344 144.300781 165.855469 144.964844 165.992188 145.652344 C 166.128906 146.335938 166.199219 147.03125 166.199219 147.730469 Z M 166.199219 147.730469 " fill-opacity="1" fill-rule="nonzero"/></g><path fill="#000000" d="M 183.007812 176.441406 C 182.574219 175.789062 181.914062 175.40625 181.167969 175.417969 L 166.371094 175.675781 L 163.117188 182.875 C 165.042969 184.789062 166.199219 187.433594 166.199219 190.328125 C 166.199219 192.714844 165.386719 194.972656 164.058594 196.71875 L 172.613281 196.71875 C 173.425781 196.71875 174.152344 196.25 174.539062 195.527344 L 183.09375 178.484375 C 183.394531 177.847656 183.394531 177.039062 183.007812 176.441406 Z M 183.007812 176.441406 " fill-opacity="1" fill-rule="nonzero"/><g clip-path="url(#fe3ac1d8f4)"><path fill="#000000" d="M 140.535156 198.679688 L 140.535156 241.449219 C 140.535156 242.640625 141.476562 243.578125 142.671875 243.578125 L 151.226562 243.578125 C 152.425781 243.578125 153.367188 242.640625 153.367188 241.449219 L 153.367188 211.628906 C 153.355469 208.847656 157.652344 208.832031 157.644531 211.628906 L 157.644531 241.449219 C 157.644531 242.640625 158.585938 243.578125 159.78125 243.578125 L 168.335938 243.578125 C 169.535156 243.578125 170.476562 242.640625 170.476562 241.449219 L 170.476562 200.980469 L 149.089844 200.980469 C 145.964844 200.980469 143.058594 200.125 140.535156 198.679688 Z M 140.535156 198.679688 " fill-opacity="1" fill-rule="nonzero"/></g><g clip-path="url(#f07272bbb4)"><path fill="#000000" d="M 155.503906 196.71875 C 162.53125 196.804688 164.316406 186.78125 157.773438 184.363281 C 156.292969 183.601562 150.765625 184.042969 149.089844 183.9375 L 149.089844 173.289062 C 149.082031 170.496094 153.375 170.5 153.367188 173.289062 L 153.367188 179.679688 L 155.503906 179.679688 C 156.917969 179.679688 158.285156 179.933594 159.527344 180.445312 L 163.03125 172.691406 C 163.375 171.925781 164.101562 171.457031 164.914062 171.414062 L 174.753906 171.242188 L 174.753906 169.027344 C 174.753906 165.492188 171.886719 162.640625 168.335938 162.640625 L 142.671875 162.640625 C 139.121094 162.640625 136.257812 165.492188 136.257812 169.027344 L 136.257812 183.9375 C 136.242188 190.824219 142.070312 196.785156 149.089844 196.71875 C 149.089844 196.71875 155.503906 196.71875 155.503906 196.71875 Z M 155.503906 196.71875 " fill-opacity="1" fill-rule="nonzero"/></g><g fill="#00a2ff" fill-opacity="1"><g transform="translate(16.628758, 250.388074)"><g><path d="M 55.34375 -122.453125 C 68.601562 -122.453125 79.148438 -119.507812 86.984375 -113.625 C 94.828125 -107.75 98.75 -99.851562 98.75 -89.9375 C 98.75 -84.632812 97.394531 -79.789062 94.6875 -75.40625 C 91.976562 -71.019531 88.257812 -67.503906 83.53125 -64.859375 C 90.21875 -62.085938 95.492188 -57.960938 99.359375 -52.484375 C 103.222656 -47.015625 105.15625 -40.9375 105.15625 -34.25 C 105.15625 -23.40625 100.65625 -14.753906 91.65625 -8.296875 C 82.664062 -1.835938 70.617188 1.390625 55.515625 1.390625 C 40.410156 1.390625 28.359375 -1.78125 19.359375 -8.125 C 10.367188 -14.46875 5.875 -23 5.875 -33.71875 C 5.875 -40.644531 7.945312 -46.875 12.09375 -52.40625 C 16.25 -57.9375 21.847656 -62.085938 28.890625 -64.859375 C 23.691406 -67.742188 19.59375 -71.488281 16.59375 -76.09375 C 13.601562 -80.707031 12.109375 -85.609375 12.109375 -90.796875 C 12.109375 -100.484375 16.023438 -108.179688 23.859375 -113.890625 C 31.703125 -119.597656 42.195312 -122.453125 55.34375 -122.453125 Z M 68.484375 -98.578125 C 65.492188 -101.003906 61.171875 -102.21875 55.515625 -102.21875 C 49.867188 -102.21875 45.546875 -101.003906 42.546875 -98.578125 C 39.546875 -96.160156 38.046875 -92.703125 38.046875 -88.203125 C 38.046875 -83.828125 39.546875 -80.484375 42.546875 -78.171875 C 45.546875 -75.867188 49.867188 -74.71875 55.515625 -74.71875 C 61.171875 -74.71875 65.492188 -75.867188 68.484375 -78.171875 C 71.484375 -80.484375 72.984375 -83.828125 72.984375 -88.203125 C 72.984375 -92.703125 71.484375 -96.160156 68.484375 -98.578125 Z M 70.90625 -48.515625 C 67.332031 -51.222656 62.203125 -52.578125 55.515625 -52.578125 C 48.828125 -52.578125 43.722656 -51.222656 40.203125 -48.515625 C 36.691406 -45.804688 34.9375 -41.914062 34.9375 -36.84375 C 34.9375 -31.769531 36.691406 -27.847656 40.203125 -25.078125 C 43.722656 -22.304688 48.828125 -20.921875 55.515625 -20.921875 C 62.203125 -20.921875 67.332031 -22.273438 70.90625 -24.984375 C 74.476562 -27.703125 76.265625 -31.65625 76.265625 -36.84375 C 76.265625 -41.914062 74.476562 -45.804688 70.90625 -48.515625 Z M 70.90625 -48.515625 "/></g></g></g></svg>