<svg xmlns="http://www.w3.org/2000/svg" xmlns:xlink="http://www.w3.org/1999/xlink" width="384" zoomAndPan="magnify" viewBox="0 0 288 431.999984" height="576" preserveAspectRatio="xMidYMid meet" version="1.0"><defs><g/><clipPath id="3ce79ae126"><path d="M 190 154 L 259.5 154 L 259.5 227 L 190 227 Z M 190 154 " clip-rule="nonzero"/></clipPath><clipPath id="3cfe900c62"><path d="M 152 137.078125 L 174 137.078125 L 174 159 L 152 159 Z M 152 137.078125 " clip-rule="nonzero"/></clipPath><clipPath id="76a0d1e869"><path d="M 148 198 L 179 198 L 179 243.578125 L 148 243.578125 Z M 148 198 " clip-rule="nonzero"/></clipPath></defs><g clip-path="url(#3ce79ae126)"><path fill="#00a2ff" d="M 259.191406 224.535156 C 259.191406 225.726562 258.25 226.667969 257.058594 226.667969 L 193.066406 226.667969 C 191.871094 226.667969 190.933594 225.726562 190.933594 224.535156 C 190.933594 223.339844 191.871094 222.402344 193.066406 222.402344 L 195.199219 222.402344 L 195.199219 190.40625 C 195.199219 189.210938 196.136719 188.273438 197.332031 188.273438 L 210.128906 188.273438 C 211.324219 188.273438 212.261719 189.210938 212.261719 190.40625 L 212.261719 222.402344 L 216.527344 222.402344 L 216.527344 173.339844 C 216.527344 172.144531 217.46875 171.207031 218.660156 171.207031 L 231.460938 171.207031 C 232.65625 171.207031 233.59375 172.144531 233.59375 173.339844 L 233.59375 222.402344 L 237.859375 222.402344 L 237.859375 156.277344 C 237.859375 155.082031 238.796875 154.144531 239.992188 154.144531 L 252.789062 154.144531 C 253.984375 154.144531 254.921875 155.082031 254.921875 156.277344 L 254.921875 222.402344 L 257.058594 222.402344 C 258.25 222.402344 259.191406 223.339844 259.191406 224.535156 Z M 259.191406 224.535156 " fill-opacity="1" fill-rule="nonzero"/></g><g clip-path="url(#3cfe900c62)"><path fill="#00a2ff" d="M 173.867188 147.742188 C 173.867188 148.445312 173.800781 149.136719 173.664062 149.824219 C 173.527344 150.511719 173.324219 151.179688 173.054688 151.824219 C 172.789062 152.472656 172.460938 153.085938 172.070312 153.667969 C 171.679688 154.25 171.238281 154.789062 170.746094 155.285156 C 170.25 155.78125 169.710938 156.222656 169.128906 156.613281 C 168.546875 157 167.929688 157.328125 167.285156 157.597656 C 166.636719 157.867188 165.96875 158.066406 165.285156 158.203125 C 164.597656 158.339844 163.902344 158.410156 163.203125 158.410156 C 162.503906 158.410156 161.808594 158.339844 161.121094 158.203125 C 160.433594 158.066406 159.769531 157.867188 159.121094 157.597656 C 158.472656 157.328125 157.859375 157 157.277344 156.613281 C 156.695312 156.222656 156.15625 155.78125 155.660156 155.285156 C 155.167969 154.789062 154.722656 154.25 154.335938 153.667969 C 153.945312 153.085938 153.617188 152.472656 153.347656 151.824219 C 153.082031 151.179688 152.878906 150.511719 152.742188 149.824219 C 152.605469 149.136719 152.539062 148.445312 152.539062 147.742188 C 152.539062 147.042969 152.605469 146.351562 152.742188 145.664062 C 152.878906 144.976562 153.082031 144.308594 153.347656 143.664062 C 153.617188 143.015625 153.945312 142.402344 154.335938 141.820312 C 154.722656 141.238281 155.167969 140.699219 155.660156 140.203125 C 156.15625 139.707031 156.695312 139.265625 157.277344 138.875 C 157.859375 138.488281 158.472656 138.160156 159.121094 137.890625 C 159.769531 137.621094 160.433594 137.421875 161.121094 137.285156 C 161.808594 137.148438 162.503906 137.078125 163.203125 137.078125 C 163.902344 137.078125 164.597656 137.148438 165.285156 137.285156 C 165.96875 137.421875 166.636719 137.621094 167.285156 137.890625 C 167.929688 138.160156 168.546875 138.488281 169.128906 138.875 C 169.710938 139.265625 170.25 139.707031 170.746094 140.203125 C 171.238281 140.699219 171.679688 141.238281 172.070312 141.820312 C 172.460938 142.402344 172.789062 143.015625 173.054688 143.664062 C 173.324219 144.308594 173.527344 144.976562 173.664062 145.664062 C 173.800781 146.351562 173.867188 147.042969 173.867188 147.742188 Z M 173.867188 147.742188 " fill-opacity="1" fill-rule="nonzero"/></g><path fill="#00a2ff" d="M 190.632812 176.496094 C 190.199219 175.84375 189.539062 175.460938 188.800781 175.472656 L 174.039062 175.730469 L 170.796875 182.9375 C 172.714844 184.859375 173.867188 187.503906 173.867188 190.40625 C 173.867188 192.792969 173.058594 195.054688 171.734375 196.804688 L 180.265625 196.804688 C 181.078125 196.804688 181.804688 196.335938 182.1875 195.609375 L 190.71875 178.546875 C 191.019531 177.90625 191.019531 177.09375 190.632812 176.496094 Z M 190.632812 176.496094 " fill-opacity="1" fill-rule="nonzero"/><g clip-path="url(#76a0d1e869)"><path fill="#00a2ff" d="M 148.269531 198.765625 L 148.269531 241.597656 C 148.269531 242.792969 149.210938 243.730469 150.40625 243.730469 L 158.9375 243.730469 C 160.132812 243.730469 161.070312 242.792969 161.070312 241.597656 L 161.070312 211.734375 C 161.058594 208.949219 165.34375 208.933594 165.335938 211.734375 L 165.335938 241.597656 C 165.335938 242.792969 166.273438 243.730469 167.46875 243.730469 L 176 243.730469 C 177.195312 243.730469 178.132812 242.792969 178.132812 241.597656 L 178.132812 201.070312 L 156.804688 201.070312 C 153.691406 201.070312 150.789062 200.21875 148.269531 198.765625 Z M 148.269531 198.765625 " fill-opacity="1" fill-rule="nonzero"/></g><path fill="#00a2ff" d="M 163.203125 196.804688 C 170.210938 196.890625 171.992188 186.851562 165.464844 184.433594 C 163.988281 183.671875 158.476562 184.109375 156.804688 184.003906 L 156.804688 173.339844 C 156.796875 170.542969 161.078125 170.550781 161.070312 173.339844 L 161.070312 179.738281 L 163.203125 179.738281 C 164.609375 179.738281 165.976562 179.996094 167.214844 180.507812 L 170.710938 172.742188 C 171.050781 171.976562 171.777344 171.507812 172.589844 171.464844 L 182.398438 171.292969 L 182.398438 169.074219 C 182.398438 165.535156 179.542969 162.675781 176 162.675781 L 150.40625 162.675781 C 146.863281 162.675781 144.003906 165.535156 144.003906 169.074219 L 144.003906 184.003906 C 143.992188 190.902344 149.804688 196.867188 156.804688 196.804688 C 156.804688 196.804688 163.203125 196.804688 163.203125 196.804688 Z M 163.203125 196.804688 " fill-opacity="1" fill-rule="nonzero"/><g fill="#00a2ff" fill-opacity="1"><g transform="translate(10.82476, 224.770978)"><g><path d="M 27.46875 0 L 11.890625 0 L 11.890625 -48.8125 L 0.609375 -48.8125 L 0.609375 -61.3125 L 27.46875 -61.3125 Z M 27.46875 0 "/></g></g></g><g fill="#00a2ff" fill-opacity="1"><g transform="translate(52.986459, 224.770978)"><g><path d="M 7.34375 -56.5 C 10.4375 -59.820312 14.609375 -61.484375 19.859375 -61.484375 C 25.109375 -61.484375 29.257812 -59.820312 32.3125 -56.5 C 35.375 -53.175781 36.90625 -48.6875 36.90625 -43.03125 C 36.90625 -37.320312 35.375 -32.800781 32.3125 -29.46875 C 29.257812 -26.144531 25.109375 -24.484375 19.859375 -24.484375 C 14.609375 -24.484375 10.4375 -26.144531 7.34375 -29.46875 C 4.257812 -32.800781 2.71875 -37.320312 2.71875 -43.03125 C 2.71875 -48.6875 4.257812 -53.175781 7.34375 -56.5 Z M 15.5625 0 L 59.296875 -61.3125 L 73.46875 -61.3125 L 29.734375 0 Z M 25.328125 -50.6875 C 24.015625 -52.519531 22.191406 -53.4375 19.859375 -53.4375 C 17.523438 -53.4375 15.703125 -52.519531 14.390625 -50.6875 C 13.078125 -48.851562 12.421875 -46.300781 12.421875 -43.03125 C 12.421875 -39.769531 13.078125 -37.21875 14.390625 -35.375 C 15.703125 -33.539062 17.523438 -32.625 19.859375 -32.625 C 22.191406 -32.625 24.015625 -33.539062 25.328125 -35.375 C 26.640625 -37.21875 27.296875 -39.769531 27.296875 -43.03125 C 27.296875 -46.300781 26.640625 -48.851562 25.328125 -50.6875 Z M 57.203125 -31.75 C 60.296875 -35.070312 64.460938 -36.734375 69.703125 -36.734375 C 74.953125 -36.734375 79.109375 -35.070312 82.171875 -31.75 C 85.234375 -28.425781 86.765625 -23.9375 86.765625 -18.28125 C 86.765625 -12.5625 85.234375 -8.023438 82.171875 -4.671875 C 79.109375 -1.328125 74.953125 0.34375 69.703125 0.34375 C 64.460938 0.34375 60.296875 -1.328125 57.203125 -4.671875 C 54.109375 -8.023438 52.5625 -12.5625 52.5625 -18.28125 C 52.5625 -23.9375 54.109375 -28.425781 57.203125 -31.75 Z M 75.171875 -25.921875 C 73.867188 -27.765625 72.050781 -28.6875 69.71875 -28.6875 C 67.382812 -28.6875 65.5625 -27.765625 64.25 -25.921875 C 62.9375 -24.085938 62.28125 -21.535156 62.28125 -18.265625 C 62.28125 -15.003906 62.9375 -12.441406 64.25 -10.578125 C 65.5625 -8.710938 67.382812 -7.78125 69.71875 -7.78125 C 72.050781 -7.78125 73.867188 -8.710938 75.171875 -10.578125 C 76.484375 -12.441406 77.140625 -15.003906 77.140625 -18.265625 C 77.140625 -21.535156 76.484375 -24.085938 75.171875 -25.921875 Z M 75.171875 -25.921875 "/></g></g></g></svg>